<svg width="193" height="57" viewBox="0 0 193 57" fill="none" xmlns="http://www.w3.org/2000/svg">
<path d="M36.522 6.96855H41.8755C35.3739 2.20762 27.4349 1.70634 24.2529 2.11162L21.3645 17.783H33.039L31.5555 26.2298H19.9455L14.6565 55.1538H20.655H27.4275C29.8011 55.1538 32.5875 54.5139 33.684 54.1939H28.137L29.943 43.4434H18.462L19.752 35.0606H31.5555L36.522 6.96855Z" fill="#2E2F6E"/>
<path d="M23.3804 6.98607L24.2528 2.11157C17.9864 2.41943 12.0847 6.04537 10.0044 7.81986C1.70007 13.7206 -0.121273 24.2606 0.0060936 28.793V55.1538H6.36832L8.41228 43.4165H2.23501V34.8861H10.0044L14.9717 6.98607H23.3804Z" fill="#2E2F6E"/>
<path d="M51.7854 37.0473C47.9674 47.3539 40.0983 52.2495 36.641 53.409L41.5406 26.2899H49.2401V17.6581H43.1314L44.595 9.09082C46.5294 10.7914 48.7098 14.0938 49.5582 15.5324C49.94 15.9404 51.0472 17.9673 52.4217 22.8114C53.7961 27.6555 52.5701 34.3204 51.7854 37.0473Z" fill="#2E2F6E"/>
<path d="M63.856 32V9.6H69.36V18.208H78.576V9.6H84.08V32H78.576V23.232H69.36V32H63.856ZM92.633 32.288C91.4383 32.288 90.3717 32.064 89.433 31.616C88.5157 31.168 87.7903 30.5493 87.257 29.76C86.745 28.9707 86.489 28.064 86.489 27.04C86.489 25.4187 87.097 24.1707 88.313 23.296C89.5503 22.4 91.2677 21.952 93.465 21.952C94.7877 21.952 96.0677 22.112 97.305 22.432V21.6C97.305 20.7467 97.0277 20.1173 96.473 19.712C95.9397 19.2853 95.1397 19.072 94.073 19.072C93.4117 19.072 92.665 19.1787 91.833 19.392C91.0223 19.6053 90.0623 19.9467 88.953 20.416L87.097 16.608C88.4837 15.9893 89.817 15.5307 91.097 15.232C92.3983 14.912 93.6997 14.752 95.001 14.752C97.3477 14.752 99.1717 15.3173 100.473 16.448C101.774 17.5573 102.425 19.1253 102.425 21.152V32H97.305V30.976C96.6223 31.4453 95.897 31.7867 95.129 32C94.3823 32.192 93.5503 32.288 92.633 32.288ZM91.417 26.944C91.417 27.4773 91.6517 27.8933 92.121 28.192C92.5903 28.4907 93.241 28.64 94.073 28.64C94.6917 28.64 95.2677 28.576 95.801 28.448C96.3557 28.32 96.857 28.1173 97.305 27.84V25.664C96.8143 25.536 96.313 25.44 95.801 25.376C95.289 25.312 94.7663 25.28 94.233 25.28C93.337 25.28 92.6437 25.4293 92.153 25.728C91.6623 26.0053 91.417 26.4107 91.417 26.944ZM112.194 32.32C110.594 32.32 109.112 32.1387 107.746 31.776C106.381 31.392 105.197 30.8373 104.194 30.112L106.658 26.624C107.725 27.264 108.696 27.7333 109.57 28.032C110.445 28.3093 111.309 28.448 112.162 28.448C113.016 28.448 113.688 28.3307 114.178 28.096C114.69 27.84 114.946 27.5093 114.946 27.104C114.946 26.784 114.808 26.528 114.53 26.336C114.253 26.1227 113.816 25.9733 113.218 25.888L109.858 25.376C108.173 25.12 106.882 24.5653 105.986 23.712C105.112 22.8373 104.674 21.7067 104.674 20.32C104.674 19.168 104.962 18.1867 105.538 17.376C106.136 16.544 106.978 15.9147 108.066 15.488C109.154 15.04 110.456 14.816 111.97 14.816C113.208 14.816 114.434 14.9867 115.65 15.328C116.866 15.6693 117.997 16.1813 119.042 16.864L116.578 20.192C115.661 19.6587 114.786 19.2747 113.954 19.04C113.122 18.784 112.29 18.656 111.458 18.656C110.797 18.656 110.264 18.7733 109.858 19.008C109.453 19.2213 109.25 19.5093 109.25 19.872C109.25 20.2133 109.4 20.4907 109.698 20.704C109.997 20.896 110.509 21.0453 111.234 21.152L114.594 21.664C116.258 21.8987 117.538 22.4533 118.434 23.328C119.352 24.1813 119.81 25.2693 119.81 26.592C119.81 27.7013 119.48 28.6827 118.818 29.536C118.157 30.3893 117.25 31.072 116.098 31.584C114.968 32.0747 113.666 32.32 112.194 32.32ZM121.788 32V9.6L126.972 8.48V16.224C128.252 15.2427 129.766 14.752 131.516 14.752C132.838 14.752 134.001 15.04 135.004 15.616C136.028 16.192 136.828 16.992 137.404 18.016C137.98 19.04 138.267 20.224 138.267 21.568V32H133.084V22.272C133.084 21.3333 132.806 20.5867 132.252 20.032C131.697 19.4773 130.95 19.2 130.012 19.2C129.35 19.2 128.764 19.3173 128.252 19.552C127.761 19.7867 127.334 20.1173 126.972 20.544V32H121.788ZM149.425 32.224C147.399 32.224 145.863 31.776 144.817 30.88C143.793 29.9627 143.281 28.6187 143.281 26.848V19.392H139.857V15.072H143.281V10.72L148.465 9.6V15.072H153.201V19.392H148.465V25.824C148.465 26.5707 148.625 27.104 148.945 27.424C149.287 27.7227 149.873 27.872 150.705 27.872C151.132 27.872 151.516 27.8507 151.857 27.808C152.22 27.744 152.615 27.648 153.041 27.52V31.712C152.572 31.8613 151.975 31.9787 151.249 32.064C150.524 32.1707 149.916 32.224 149.425 32.224ZM160.633 32.288C159.438 32.288 158.372 32.064 157.433 31.616C156.516 31.168 155.79 30.5493 155.257 29.76C154.745 28.9707 154.489 28.064 154.489 27.04C154.489 25.4187 155.097 24.1707 156.313 23.296C157.55 22.4 159.268 21.952 161.465 21.952C162.788 21.952 164.068 22.112 165.305 22.432V21.6C165.305 20.7467 165.028 20.1173 164.473 19.712C163.94 19.2853 163.14 19.072 162.073 19.072C161.412 19.072 160.665 19.1787 159.833 19.392C159.022 19.6053 158.062 19.9467 156.953 20.416L155.097 16.608C156.484 15.9893 157.817 15.5307 159.097 15.232C160.398 14.912 161.7 14.752 163.001 14.752C165.348 14.752 167.172 15.3173 168.473 16.448C169.774 17.5573 170.425 19.1253 170.425 21.152V32H165.305V30.976C164.622 31.4453 163.897 31.7867 163.129 32C162.382 32.192 161.55 32.288 160.633 32.288ZM159.417 26.944C159.417 27.4773 159.652 27.8933 160.121 28.192C160.59 28.4907 161.241 28.64 162.073 28.64C162.692 28.64 163.268 28.576 163.801 28.448C164.356 28.32 164.857 28.1173 165.305 27.84V25.664C164.814 25.536 164.313 25.44 163.801 25.376C163.289 25.312 162.766 25.28 162.233 25.28C161.337 25.28 160.644 25.4293 160.153 25.728C159.662 26.0053 159.417 26.4107 159.417 26.944ZM182.146 38.848C180.781 38.848 179.48 38.72 178.242 38.464C177.026 38.208 175.917 37.8453 174.914 37.376L176.642 33.344C177.56 33.7707 178.466 34.0907 179.362 34.304C180.258 34.5173 181.154 34.624 182.05 34.624C183.266 34.624 184.184 34.3787 184.802 33.888C185.421 33.3973 185.73 32.6613 185.73 31.68V30.72C184.408 31.616 182.946 32.064 181.346 32.064C179.746 32.064 178.296 31.68 176.994 30.912C175.693 30.144 174.658 29.1093 173.89 27.808C173.122 26.4853 172.738 25.024 172.738 23.424C172.738 21.824 173.122 20.3733 173.89 19.072C174.68 17.7707 175.736 16.7467 177.058 16C178.402 15.232 179.896 14.848 181.538 14.848C182.306 14.848 183.053 14.944 183.778 15.136C184.504 15.328 185.176 15.6053 185.794 15.968V15.072H190.914V31.744C190.914 34.0267 190.157 35.776 188.642 36.992C187.149 38.2293 184.984 38.848 182.146 38.848ZM182.242 27.712C182.946 27.712 183.586 27.6053 184.162 27.392C184.76 27.1787 185.282 26.8693 185.73 26.464V20.48C185.282 20.096 184.76 19.7973 184.162 19.584C183.586 19.3493 182.957 19.232 182.274 19.232C181.442 19.232 180.685 19.424 180.002 19.808C179.341 20.1707 178.808 20.672 178.402 21.312C178.018 21.9307 177.826 22.6347 177.826 23.424C177.826 24.2347 178.018 24.9707 178.402 25.632C178.786 26.272 179.309 26.784 179.97 27.168C180.653 27.5307 181.41 27.712 182.242 27.712Z" fill="#2E2F6E"/>
<path d="M64.656 50.896H67.216C68.0267 50.896 68.752 50.6987 69.392 50.304C70.032 49.9093 70.5387 49.376 70.912 48.704C71.296 48.0213 71.488 47.2533 71.488 46.4C71.488 45.5467 71.296 44.784 70.912 44.112C70.5387 43.4293 70.032 42.8907 69.392 42.496C68.752 42.1013 68.0267 41.904 67.216 41.904H64.656V50.896ZM63.424 52V40.8H67.136C67.9573 40.8 68.7093 40.944 69.392 41.232C70.0853 41.5093 70.6773 41.904 71.168 42.416C71.6693 42.9173 72.0533 43.5093 72.32 44.192C72.5973 44.864 72.736 45.6 72.736 46.4C72.736 47.2 72.5973 47.9413 72.32 48.624C72.0533 49.296 71.6693 49.888 71.168 50.4C70.6773 50.9013 70.0853 51.296 69.392 51.584C68.7093 51.8613 67.9573 52 67.136 52H63.424ZM75.8486 52V40.8H77.0806V52H75.8486ZM85.8475 52.176C85.0475 52.176 84.3062 52.0267 83.6235 51.728C82.9408 51.4293 82.3382 51.0187 81.8155 50.496C81.3035 49.9627 80.9035 49.3493 80.6155 48.656C80.3275 47.952 80.1835 47.2 80.1835 46.4C80.1835 45.6 80.3275 44.8533 80.6155 44.16C80.9035 43.456 81.3035 42.8427 81.8155 42.32C82.3382 41.7867 82.9408 41.3707 83.6235 41.072C84.3062 40.7733 85.0475 40.624 85.8475 40.624C86.7008 40.624 87.5062 40.7787 88.2635 41.088C89.0315 41.3973 89.6822 41.856 90.2155 42.464L89.3835 43.296C88.9675 42.7947 88.4448 42.4107 87.8155 42.144C87.1862 41.8773 86.5302 41.744 85.8475 41.744C85.2182 41.744 84.6368 41.8667 84.1035 42.112C83.5702 42.3467 83.1008 42.6773 82.6955 43.104C82.3008 43.52 81.9915 44.0107 81.7675 44.576C81.5435 45.1413 81.4315 45.7493 81.4315 46.4C81.4315 47.0507 81.5435 47.6587 81.7675 48.224C81.9915 48.7893 82.3008 49.2853 82.6955 49.712C83.1008 50.128 83.5702 50.4587 84.1035 50.704C84.6368 50.9387 85.2182 51.056 85.8475 51.056C86.5942 51.056 87.2608 50.8907 87.8475 50.56C88.4448 50.2293 88.9248 49.776 89.2875 49.2C89.6608 48.6133 89.8795 47.9573 89.9435 47.232H86.1675V46.144H91.1915V46.64C91.1915 47.4187 91.0582 48.144 90.7915 48.816C90.5248 49.4773 90.1462 50.064 89.6555 50.576C89.1755 51.0773 88.6102 51.472 87.9595 51.76C87.3088 52.0373 86.6048 52.176 85.8475 52.176ZM94.2767 52V40.8H95.5087V52H94.2767ZM102.036 52V41.888H98.1636V40.8H107.14V41.888H103.268V52H102.036ZM106.769 52L111.201 40.8H112.673L117.041 52H115.713L114.385 48.48H109.393L108.065 52H106.769ZM109.777 47.504H114.017L111.889 41.92L109.777 47.504ZM119.411 52V40.8H120.643V50.912H126.964V52H119.411Z" fill="#2E2F6E"/>
</svg>
