<svg width="20" height="20" viewBox="0 0 20 20" fill="none" xmlns="http://www.w3.org/2000/svg">
<path fill-rule="evenodd" clip-rule="evenodd" d="M7.85734 7.47416H10.9523V9.01582C11.3982 8.12916 12.5415 7.33249 14.259 7.33249C17.5515 7.33249 18.3332 9.09749 18.3332 12.3358V18.3333H14.9998V13.0733C14.9998 11.2292 14.554 10.1892 13.419 10.1892C11.8448 10.1892 11.1907 11.31 11.1907 13.0725V18.3333H7.85734V7.47416ZM2.1415 18.1917H5.47484V7.33249H2.1415V18.1917ZM5.95234 3.79166C5.95246 4.07105 5.89705 4.34769 5.78933 4.60548C5.6816 4.86327 5.52371 5.09708 5.32484 5.29332C4.92184 5.69384 4.37635 5.91803 3.80817 5.91666C3.241 5.91628 2.69676 5.69266 2.29317 5.29416C2.09501 5.09725 1.93766 4.86318 1.83012 4.60535C1.72259 4.34752 1.66699 4.07101 1.6665 3.79166C1.6665 3.22749 1.8915 2.68749 2.294 2.28916C2.69724 1.89012 3.2417 1.66641 3.809 1.66666C4.37734 1.66666 4.92234 1.89082 5.32484 2.28916C5.7265 2.68749 5.95234 3.22749 5.95234 3.79166Z" fill="#2E2F6E"/>
</svg>
