<svg width="19" height="15" viewBox="0 0 19 15" fill="none" xmlns="http://www.w3.org/2000/svg">
<path d="M19 1.77927C18.3013 2.07995 17.5507 2.28311 16.7616 2.37493C17.5758 1.90181 18.1849 1.15718 18.4753 0.279967C17.7104 0.721218 16.8732 1.03181 16.0001 1.19824C15.413 0.58947 14.6354 0.185967 13.7879 0.050377C12.9405 -0.0852125 12.0707 0.0546982 11.3135 0.448387C10.5563 0.842076 9.95419 1.46752 9.60054 2.22761C9.2469 2.9877 9.16155 3.83991 9.35775 4.65193C7.80776 4.57635 6.29146 4.18511 4.90725 3.5036C3.52304 2.82209 2.30186 1.86554 1.32295 0.696035C0.988241 1.25675 0.795781 1.90686 0.795781 2.59922C0.795407 3.22251 0.953458 3.83624 1.25591 4.38598C1.55836 4.93572 1.99586 5.40446 2.5296 5.75061C1.91061 5.73148 1.30528 5.56905 0.763983 5.27684V5.3256C0.763921 6.19978 1.07529 7.04707 1.64527 7.72368C2.21524 8.40029 3.00871 8.86456 3.89104 9.03771C3.31683 9.18863 2.71481 9.21086 2.13045 9.10272C2.37939 9.8549 2.86431 10.5127 3.51731 10.9839C4.17031 11.4551 4.95871 11.7163 5.77213 11.7308C4.3913 12.7835 2.68598 13.3545 0.930503 13.352C0.619538 13.3521 0.308837 13.3344 0 13.2992C1.78191 14.4118 3.85618 15.0023 5.97463 15C13.1459 15 17.0662 9.23193 17.0662 4.22936C17.0662 4.06683 17.062 3.90268 17.0545 3.74016C17.817 3.20461 18.4753 2.54144 18.9983 1.78171L19 1.77927Z" fill="#2E2F6E"/>
</svg>
