<svg width="74" height="74" viewBox="0 0 74 74" fill="none" xmlns="http://www.w3.org/2000/svg">
<path d="M60.125 16.1875H64.75V23.125H60.125V16.1875ZM67.0625 9.25H74V13.875H67.0625V9.25ZM60.125 0H64.75V6.9375H60.125V0ZM50.875 9.25H57.8125V13.875H50.875V9.25ZM43.9375 37V43.2438L38.1562 41.625L37 46.0187L42.55 47.6375L39.3125 53.1875L43.2438 55.5L46.25 50.4125L49.2562 55.5L53.1875 53.1875L49.95 47.6375L55.5 46.0187L54.3438 41.625L48.5625 43.2438V37H43.9375ZM30.0625 37V30.0625H37V25.4375H30.0625V18.5H25.4375V25.4375H18.5V30.0625H25.4375V37H30.0625Z" fill="#00B9BC"/>
<path d="M60.125 60.125H13.875V13.875H43.9375V9.25H13.875C12.6495 9.25366 11.4752 9.74211 10.6087 10.6087C9.74211 11.4752 9.25366 12.6495 9.25 13.875V60.125C9.25366 61.3505 9.74211 62.5248 10.6087 63.3913C11.4752 64.2579 12.6495 64.7463 13.875 64.75H60.125C61.3505 64.7463 62.5248 64.2579 63.3913 63.3913C64.2579 62.5248 64.7463 61.3505 64.75 60.125V30.0625H60.125V60.125Z" fill="#00B9BC"/>
</svg>
