<svg width="76" height="76" viewBox="0 0 76 76" fill="none" xmlns="http://www.w3.org/2000/svg">
<path d="M66.8916 28.5722C69.006 35.068 68.8706 42.0866 66.5073 48.496C64.1441 54.9054 59.6907 60.3319 53.8655 63.9002C48.0402 67.4685 41.1829 68.9705 34.3994 68.164C27.616 67.3575 21.302 64.2895 16.4758 59.4548C11.6496 54.6202 8.59274 48.3008 7.79816 41.5159C7.00358 34.7311 8.51766 27.8764 12.0962 22.0574C15.6747 16.2385 21.109 11.7946 27.5225 9.44264C33.9361 7.09062 40.955 6.9676 47.447 9.09339L43.4646 13.072C43.2442 13.2886 43.0466 13.528 42.8642 13.775C37.6661 12.7258 32.2684 13.3774 27.4693 15.6334C22.6702 17.8894 18.7246 21.6299 16.216 26.3019C13.7074 30.9739 12.7689 36.3292 13.5395 41.5758C14.31 46.8224 16.7486 51.6817 20.4946 55.4351C24.2407 59.1885 29.0952 61.6367 34.3403 62.4175C39.5854 63.1983 44.9425 62.2704 49.6194 59.771C54.2963 57.2715 58.0446 53.3332 60.31 48.5386C62.5754 43.7439 63.2376 38.3475 62.1986 33.1474C62.4586 32.963 62.7026 32.757 62.9282 32.5318L66.8878 28.5722H66.8916ZM56.6126 34.2C57.4284 38.202 56.9329 42.3603 55.1996 46.0586C53.4662 49.7568 50.5873 52.7981 46.9896 54.7315C43.3919 56.6649 39.267 57.3875 35.2263 56.7923C31.1856 56.197 27.4443 54.3155 24.557 51.4267C21.6697 48.538 19.7901 44.7957 19.1969 40.7547C18.6038 36.7137 19.3285 32.5891 21.2638 28.9924C23.199 25.3957 26.2417 22.5184 29.9409 20.7869C33.64 19.0555 37.7986 18.5621 41.8002 19.38V25.2548C38.9641 24.4081 35.9266 24.5317 33.1687 25.6059C30.4107 26.6801 28.0899 28.6436 26.5736 31.1855C25.0573 33.7274 24.4322 36.7024 24.7973 39.6396C25.1624 42.5768 26.4968 45.3083 28.5892 47.4016C30.6816 49.4949 33.4125 50.8304 36.3496 51.1968C39.2866 51.5631 42.2619 50.9393 44.8044 49.4241C47.3469 47.9089 49.3114 45.5889 50.3868 42.8314C51.4622 40.0739 51.587 37.0365 50.7416 34.2H56.6126ZM37.9926 43.7C38.8667 43.7005 39.7293 43.4998 40.5135 43.1137C41.2978 42.7275 41.9827 42.1662 42.5153 41.473C43.0479 40.7799 43.414 39.9735 43.5852 39.1163C43.7564 38.2591 43.7281 37.374 43.5026 36.5294L49.5142 30.514L49.6282 30.4H58.9002C59.1499 30.4004 59.3972 30.3517 59.628 30.2565C59.8588 30.1613 60.0686 30.0215 60.2454 29.8452L67.8454 22.2452C68.1118 21.9795 68.2933 21.6406 68.3669 21.2716C68.4405 20.9026 68.4029 20.52 68.2588 20.1724C68.1147 19.8248 67.8706 19.5278 67.5576 19.3191C67.2445 19.1104 66.8765 18.9993 66.5002 19H57.0002V9.5C57.0001 9.1245 56.8888 8.75744 56.6802 8.44518C56.4717 8.13292 56.1753 7.88945 55.8285 7.74552C55.4817 7.60159 55.1 7.56365 54.7316 7.63649C54.3632 7.70933 54.0247 7.88969 53.7588 8.15479L46.1588 15.7548C45.9818 15.9313 45.8413 16.1409 45.7455 16.3717C45.6496 16.6026 45.6002 16.8501 45.6002 17.1V26.372C45.5611 26.4089 45.5231 26.4469 45.4862 26.486L39.4746 32.49C38.6293 32.2632 37.7432 32.2339 36.8849 32.4045C36.0265 32.575 35.2189 32.9408 34.5245 33.4735C33.8302 34.0062 33.2677 34.6915 32.8807 35.4765C32.4936 36.2614 32.2924 37.1248 32.2926 38C32.2926 39.5117 32.8931 40.9615 33.9621 42.0305C35.031 43.0995 36.4809 43.7 37.9926 43.7Z" fill="#00B9BC"/>
</svg>
