<svg width="80" height="80" viewBox="0 0 80 80" fill="none" xmlns="http://www.w3.org/2000/svg">
<path d="M52.5 50V75L75 62.5L52.5 50Z" fill="#00B9BC"/>
<path d="M35 40C37.7614 40 40 37.7614 40 35C40 32.2386 37.7614 30 35 30C32.2386 30 30 32.2386 30 35C30 37.7614 32.2386 40 35 40Z" fill="#00B9BC"/>
<path d="M35 50C32.0333 50 29.1332 49.1203 26.6665 47.472C24.1997 45.8238 22.2771 43.4811 21.1418 40.7403C20.0065 37.9994 19.7094 34.9834 20.2882 32.0737C20.867 29.1639 22.2956 26.4912 24.3934 24.3934C26.4912 22.2956 29.1639 20.867 32.0737 20.2882C34.9834 19.7094 37.9994 20.0065 40.7403 21.1418C43.4811 22.2771 45.8238 24.1997 47.472 26.6665C49.1203 29.1332 50 32.0333 50 35C49.9954 38.9768 48.4135 42.7894 45.6015 45.6015C42.7894 48.4135 38.9768 49.9954 35 50ZM35 25C33.0222 25 31.0888 25.5865 29.4443 26.6853C27.7998 27.7841 26.5181 29.3459 25.7612 31.1732C25.0043 33.0004 24.8063 35.0111 25.1922 36.9509C25.578 38.8907 26.5304 40.6725 27.9289 42.0711C29.3275 43.4696 31.1093 44.422 33.0491 44.8079C34.9889 45.1937 36.9996 44.9957 38.8268 44.2388C40.6541 43.4819 42.2159 42.2002 43.3147 40.5557C44.4135 38.9112 45 36.9778 45 35C44.9967 32.3489 43.9421 29.8072 42.0674 27.9326C40.1928 26.0579 37.6512 25.0033 35 25Z" fill="#00B9BC"/>
<path d="M64.8777 32.275H64.8627C64.3296 26.1212 61.9177 20.28 57.9538 15.5428C53.9899 10.8056 48.6656 7.40142 42.7023 5.79141C36.7389 4.18139 30.4248 4.44341 24.6154 6.54195C18.8059 8.64049 13.782 12.4741 10.2242 17.5234C6.66637 22.5728 4.74672 28.5937 4.72528 34.7705C4.70384 40.9473 6.58166 46.9814 10.1043 52.0553C13.627 57.1292 18.6242 60.9976 24.4189 63.1365C30.2137 65.2753 36.5258 65.5811 42.5002 64.0125V58.8475C37.2017 60.506 31.5015 60.3501 26.3017 58.4044C21.1018 56.4587 16.6994 52.8344 13.7911 48.1052C10.8828 43.3759 9.6349 37.8117 10.2448 32.2934C10.8546 26.775 13.2875 21.6177 17.1583 17.6376C21.0291 13.6575 26.1167 11.082 31.6159 10.3188C37.1152 9.55554 42.7119 10.6481 47.5203 13.4236C52.3287 16.1991 56.0742 20.4989 58.1638 25.6426C60.2535 30.7863 60.5681 36.48 59.0577 41.8225L63.8702 43.1825C64.6213 40.52 65.0015 37.7665 65.0002 35C65.0002 34.0834 64.9594 33.175 64.8777 32.275Z" fill="#00B9BC"/>
</svg>
