<svg width="30" height="30" viewBox="0 0 30 30" fill="none" xmlns="http://www.w3.org/2000/svg">
<path d="M5.80486 6H25.6799C27.5549 6 28.4999 6.885 28.4999 8.685V21.315C28.4999 23.1 27.5549 24 25.6799 24H5.80486C3.92986 24 2.98486 23.1 2.98486 21.315V8.685C2.98486 6.885 3.92986 6 5.80486 6ZM15.7349 18.9L25.8449 10.605C26.2049 10.305 26.4899 9.615 26.0399 9C25.6049 8.385 24.8099 8.37 24.2849 8.745L15.7349 14.535L7.19986 8.745C6.67486 8.37 5.87986 8.385 5.44486 9C4.99486 9.615 5.27986 10.305 5.63986 10.605L15.7349 18.9Z" fill="#2E2F6E"/>
</svg>
