<svg width="24" height="30" viewBox="0 0 24 30" fill="none" xmlns="http://www.w3.org/2000/svg">
<path d="M12 30C9.83473 28.2047 7.82774 26.2366 5.99999 24.1161C3.25714 20.9318 1.50667e-06 16.1894 1.50667e-06 11.6702C-0.00118803 9.36229 0.702014 7.10587 2.02061 5.18655C3.33921 3.26722 5.21394 1.77127 7.40753 0.888006C9.60112 0.0047436 12.015 -0.226122 14.3436 0.224626C16.6722 0.675374 18.8109 1.78747 20.4891 3.42018C21.6064 4.5014 22.492 5.78728 23.0946 7.2034C23.6972 8.61952 24.005 10.1378 23.9999 11.6702C23.9999 16.1894 20.7428 20.9318 18 24.1161C16.1722 26.2366 14.1652 28.2047 12 30ZM12 6.67122C10.636 6.67122 9.3279 7.1979 8.36343 8.1354C7.39896 9.0729 6.85713 10.3444 6.85713 11.6702C6.85713 12.9961 7.39896 14.2676 8.36343 15.2051C9.3279 16.1426 10.636 16.6693 12 16.6693C13.3639 16.6693 14.672 16.1426 15.6365 15.2051C16.601 14.2676 17.1428 12.9961 17.1428 11.6702C17.1428 10.3444 16.601 9.0729 15.6365 8.1354C14.672 7.1979 13.3639 6.67122 12 6.67122Z" fill="#2E2F6E"/>
</svg>
