<svg width="28" height="28" viewBox="0 0 28 28" fill="none" xmlns="http://www.w3.org/2000/svg">
<path d="M27.4856 21.9331L21.0965 16.124C20.7944 15.8495 20.3976 15.7031 19.9896 15.7157C19.5817 15.7283 19.1946 15.8989 18.9102 16.1915L15.149 20.0596C14.2436 19.8867 12.4235 19.3193 10.55 17.4505C8.6765 15.5754 8.1091 13.7506 7.94092 12.8516L11.8059 9.08887C12.0988 8.80459 12.2697 8.41746 12.2823 8.00941C12.295 7.60136 12.1483 7.20442 11.8734 6.90258L6.06582 0.515046C5.79083 0.212261 5.40864 0.0285999 5.00042 0.0030677C4.59219 -0.0224645 4.19009 0.112144 3.87952 0.378305L0.468825 3.30331C0.197087 3.57603 0.0348952 3.939 0.0130172 4.32336C-0.0105591 4.7163 -0.460079 14.0241 6.75739 21.2447C13.0538 27.5395 20.9409 28 23.113 28C23.4305 28 23.6254 27.9906 23.6773 27.9874C24.0616 27.9659 24.4244 27.803 24.6958 27.5301L27.6192 24.1178C27.8864 23.8082 28.022 23.4065 27.9971 22.9983C27.9721 22.5901 27.7886 22.2078 27.4856 21.9331Z" fill="#2E2F6E"/>
</svg>
