<svg width="60" height="60" viewBox="0 0 60 60" fill="none" xmlns="http://www.w3.org/2000/svg">
<path d="M30 0C13.433 0 0 13.433 0 30C0 46.567 13.433 60 30 60C46.567 60 60 46.567 60 30C60 13.433 46.567 0 30 0ZM42.9576 20.2031L28.8549 39.7567C28.6578 40.0318 28.398 40.256 28.0969 40.4106C27.7959 40.5653 27.4623 40.6459 27.1239 40.6459C26.7854 40.6459 26.4519 40.5653 26.1508 40.4106C25.8498 40.256 25.59 40.0318 25.3929 39.7567L17.0424 28.1853C16.7879 27.8304 17.0424 27.3348 17.4777 27.3348H20.6183C21.3013 27.3348 21.9509 27.6629 22.3527 28.2254L27.1205 34.8415L37.6473 20.2433C38.0491 19.6875 38.692 19.3527 39.3817 19.3527H42.5223C42.9576 19.3527 43.2121 19.8482 42.9576 20.2031Z" fill="#00B9BC"/>
</svg>
