<svg width="119" height="114" viewBox="0 0 119 114" fill="none" xmlns="http://www.w3.org/2000/svg">
<path d="M7.49994 39.5408V39.4619C7.49983 31.6666 9.78148 24.0459 14.057 17.5613C18.3326 11.0766 24.4105 6.01858 31.5239 3.02526C38.6373 0.0319316 46.4676 -0.762551 54.0268 0.742043C61.5859 2.24664 68.5354 5.9829 73.9983 11.4794C78.2965 9.33285 83.0975 8.43032 87.8709 8.87156C92.6443 9.3128 97.2042 11.0806 101.047 13.9798C104.89 16.8789 107.865 20.7964 109.646 25.2996C111.426 29.8027 111.941 34.7161 111.134 39.497C112.32 39.6084 113.471 39.9659 114.514 40.5472C115.557 41.1285 116.471 41.9211 117.198 42.8756C117.925 43.8301 118.45 44.926 118.74 46.0949C119.029 47.2638 119.078 48.4805 118.882 49.6693C114.965 73.5127 105.276 88.6044 89.832 94.9533V100.846C89.832 104.335 88.4624 107.681 86.0245 110.147C83.5865 112.614 80.28 114 76.8322 114H42.1661C38.7183 114 35.4118 112.614 32.9738 110.147C30.5359 107.681 29.1663 104.335 29.1663 100.846V94.9533C13.7225 88.6044 4.03332 73.5127 0.116051 49.6693C-0.0730034 48.5121 -0.03073 47.3283 0.240368 46.188C0.511467 45.0477 1.00588 43.974 1.69435 43.0304C2.38282 42.0869 3.25136 41.2927 4.24856 40.6948C5.24576 40.0969 6.35137 39.7075 7.49994 39.5496V39.5408ZM16.1665 39.4619H24.833C24.833 33.6476 27.1157 28.0714 31.1789 23.96C35.2422 19.8487 40.7531 17.539 46.4993 17.539C52.2456 17.539 57.7565 19.8487 61.8198 23.96C65.883 28.0714 68.1657 33.6476 68.1657 39.4619H76.8322C76.8322 31.3219 73.6364 23.5152 67.9479 17.7593C62.2594 12.0034 54.5441 8.76977 46.4993 8.76977C38.4546 8.76977 30.7393 12.0034 25.0508 17.7593C19.3623 23.5152 16.1665 31.3219 16.1665 39.4619ZM33.4995 39.4619H59.4992C59.4992 35.9733 58.1295 32.6276 55.6916 30.1608C53.2537 27.694 49.9471 26.3081 46.4993 26.3081C43.0516 26.3081 39.745 27.694 37.3071 30.1608C34.8692 32.6276 33.4995 35.9733 33.4995 39.4619ZM93.004 39.4619H102.286C102.94 36.8704 103.001 34.1619 102.464 31.5429C101.927 28.9239 100.807 26.4635 99.1875 24.3491C97.5685 22.2347 95.4938 20.5222 93.1216 19.342C90.7494 18.1618 88.1422 17.5452 85.4988 17.539C83.4188 17.539 81.4428 17.9073 79.6055 18.5825C81.1395 21.0729 82.4048 23.7563 83.3755 26.5712C85.0261 26.157 86.7607 26.2423 88.3639 26.8165C89.9671 27.3908 91.3683 28.4288 92.3938 29.8016C93.4192 31.1744 94.0236 32.8217 94.1321 34.5391C94.2406 36.2564 93.8483 37.9681 93.004 39.4619ZM81.1655 96.4616H37.8328V100.846C37.8328 102.009 38.2894 103.124 39.102 103.947C39.9146 104.769 41.0168 105.231 42.1661 105.231H76.8322C77.9815 105.231 79.0837 104.769 79.8963 103.947C80.709 103.124 81.1655 102.009 81.1655 100.846V96.4616ZM34.7822 87.6924H84.2161C97.9612 83.2202 106.662 70.575 110.337 48.2311H8.66125C12.3359 70.575 21.0371 83.2202 34.7822 87.6924Z" fill="#00B9BC"/>
</svg>
