<svg width="118" height="118" viewBox="0 0 118 118" fill="none" xmlns="http://www.w3.org/2000/svg">
<path d="M99.5625 88.5C97.9199 88.5075 96.3002 88.8857 94.8241 89.6063L78.9678 73.75H66.375V81.125H75.9109L89.6099 94.8241C88.8888 96.3001 88.5094 97.9197 88.5 99.5625C88.5 101.75 89.1488 103.889 90.3644 105.708C91.5799 107.528 93.3077 108.946 95.3291 109.783C97.3505 110.62 99.5748 110.839 101.721 110.412C103.867 109.986 105.838 108.932 107.385 107.385C108.932 105.838 109.986 103.867 110.412 101.721C110.839 99.5748 110.62 97.3505 109.783 95.3291C108.946 93.3077 107.528 91.5799 105.708 90.3644C103.889 89.1488 101.75 88.5 99.5625 88.5ZM99.5625 103.25C98.8332 103.25 98.1202 103.034 97.5138 102.629C96.9074 102.223 96.4348 101.647 96.1557 100.974C95.8766 100.3 95.8036 99.5584 95.9459 98.8431C96.0881 98.1278 96.4393 97.4708 96.955 96.955C97.4707 96.4393 98.1278 96.0881 98.8431 95.9459C99.5584 95.8036 100.3 95.8766 100.974 96.1557C101.647 96.4348 102.223 96.9074 102.629 97.5138C103.034 98.1202 103.25 98.8332 103.25 99.5625C103.25 100.54 102.861 101.478 102.17 102.17C101.478 102.862 100.54 103.25 99.5625 103.25ZM99.5625 47.9375C97.282 47.9443 95.0596 48.6568 93.2003 49.9773C91.341 51.2978 89.9361 53.1615 89.1785 55.3125H66.375V62.6875H89.1785C89.8578 64.5946 91.0483 66.2783 92.6198 67.5545C94.1913 68.8308 96.0833 69.6506 98.0892 69.9242C100.095 70.1979 102.138 69.915 103.994 69.1063C105.849 68.2977 107.447 66.9945 108.613 65.3391C109.778 63.6837 110.466 61.7399 110.602 59.7199C110.737 57.7 110.314 55.6817 109.38 53.8857C108.446 52.0896 107.036 50.5848 105.305 49.5358C103.573 48.4868 101.587 47.9339 99.5625 47.9375ZM99.5625 62.6875C98.8332 62.6875 98.1202 62.4712 97.5138 62.0661C96.9074 61.6609 96.4348 61.0849 96.1557 60.4111C95.8766 59.7373 95.8036 58.9959 95.9459 58.2806C96.0881 57.5653 96.4393 56.9083 96.955 56.3925C97.4707 55.8768 98.1278 55.5256 98.8431 55.3834C99.5584 55.2411 100.3 55.3141 100.974 55.5932C101.647 55.8723 102.223 56.3449 102.629 56.9513C103.034 57.5577 103.25 58.2707 103.25 59C103.25 59.978 102.861 60.9159 102.17 61.6075C101.478 62.299 100.54 62.6875 99.5625 62.6875ZM99.5625 7.375C96.6294 7.37793 93.8174 8.54438 91.7434 10.6184C89.6694 12.6924 88.5029 15.5044 88.5 18.4375C88.5126 20.204 88.9529 21.9412 89.7832 23.5004L75.9478 36.875H66.375V44.25H78.9272L95.1523 28.5708C96.6594 29.228 98.2942 29.5409 99.9376 29.4866C101.581 29.4323 103.192 29.0123 104.652 28.2571C106.113 27.5018 107.386 26.4304 108.381 25.1208C109.375 23.8112 110.065 22.2964 110.4 20.6866C110.735 19.0768 110.706 17.4126 110.317 15.8151C109.928 14.2176 109.187 12.727 108.149 11.4519C107.111 10.1768 105.801 9.14918 104.316 8.44392C102.831 7.73867 101.207 7.3735 99.5625 7.375ZM99.5625 22.125C98.8332 22.125 98.1202 21.9087 97.5138 21.5035C96.9074 21.0984 96.4348 20.5225 96.1557 19.8486C95.8766 19.1748 95.8036 18.4334 95.9459 17.7181C96.0881 17.0028 96.4393 16.3458 96.955 15.83C97.4707 15.3143 98.1278 14.9631 98.8431 14.8209C99.5584 14.6786 100.3 14.7516 100.974 15.0307C101.647 15.3098 102.223 15.7824 102.629 16.3888C103.034 16.9952 103.25 17.7082 103.25 18.4375C103.25 19.4155 102.861 20.3534 102.17 21.045C101.478 21.7365 100.54 22.125 99.5625 22.125Z" fill="#00B9BC"/>
<path d="M66.375 22.125H73.75V14.75H66.375C64.2736 14.757 62.1982 15.2157 60.2895 16.095C58.3809 16.9742 56.6835 18.2535 55.3125 19.8461C53.9415 18.2535 52.2441 16.9742 50.3355 16.095C48.4268 15.2157 46.3514 14.757 44.25 14.75H40.5625C31.7636 14.7598 23.3279 18.2594 17.1062 24.4812C10.8844 30.7029 7.38476 39.1386 7.375 47.9375V70.0625C7.38476 78.8614 10.8844 87.2971 17.1062 93.5188C23.3279 99.7406 31.7636 103.24 40.5625 103.25H44.25C46.3514 103.243 48.4268 102.784 50.3355 101.905C52.2441 101.026 53.9415 99.7465 55.3125 98.1539C56.6835 99.7465 58.3809 101.026 60.2895 101.905C62.1982 102.784 64.2736 103.243 66.375 103.25H73.75V95.875H66.375C64.4196 95.873 62.5449 95.0954 61.1622 93.7128C59.7796 92.3301 59.002 90.4554 59 88.5V29.5C59.002 27.5446 59.7796 25.6699 61.1622 24.2872C62.5449 22.9046 64.4196 22.127 66.375 22.125ZM44.25 95.875H40.5625C34.3618 95.8639 28.3719 93.6226 23.687 89.5605C19.002 85.4984 15.9346 79.8866 15.045 73.75H22.125V66.375H14.75V51.625H25.8125C28.7456 51.6221 31.5576 50.4556 33.6316 48.3816C35.7056 46.3076 36.8721 43.4956 36.875 40.5625V33.1875H29.5V40.5625C29.5 41.5405 29.1115 42.4784 28.42 43.17C27.7284 43.8615 26.7905 44.25 25.8125 44.25H15.045C15.9346 38.1134 19.002 32.5016 23.687 28.4395C28.3719 24.3774 34.3618 22.1361 40.5625 22.125H44.25C46.2054 22.127 48.0801 22.9046 49.4628 24.2872C50.8454 25.6699 51.623 27.5446 51.625 29.5V44.25H44.25V51.625H51.625V66.375H44.25C41.3169 66.3779 38.5049 67.5444 36.4309 69.6184C34.3569 71.6924 33.1904 74.5044 33.1875 77.4375V84.8125H40.5625V77.4375C40.5625 76.4595 40.951 75.5216 41.6425 74.83C42.3341 74.1385 43.272 73.75 44.25 73.75H51.625V88.5C51.623 90.4554 50.8454 92.3301 49.4628 93.7128C48.0801 95.0954 46.2054 95.873 44.25 95.875Z" fill="#00B9BC"/>
</svg>
