<svg width="138" height="138" viewBox="0 0 138 138" fill="none" xmlns="http://www.w3.org/2000/svg">
<path d="M116.438 51.75V60.375H120.75V77.625C120.75 81.0562 119.387 84.3469 116.961 86.7732C114.534 89.1994 111.244 90.5625 107.813 90.5625C104.381 90.5625 101.091 89.1994 98.6643 86.7732C96.2381 84.3469 94.875 81.0562 94.875 77.625V60.375H99.1875V51.75H86.25V77.625C86.2565 82.5934 87.9758 87.4076 91.118 91.256C94.2603 95.1045 98.6333 97.7519 103.5 98.7519V103.5C103.5 108.075 101.683 112.463 98.4476 115.698C95.2126 118.933 90.825 120.75 86.25 120.75C81.675 120.75 77.2874 118.933 74.0524 115.698C70.8174 112.463 69 108.075 69 103.5V94.0815C71.8774 93.0642 74.3025 91.0625 75.8467 88.4301C77.3909 85.7977 77.9548 82.7041 77.4387 79.6961C76.9226 76.6882 75.3598 73.9595 73.0264 71.9924C70.6931 70.0253 67.7394 68.9464 64.6875 68.9464C61.6356 68.9464 58.682 70.0253 56.3486 71.9924C54.0153 73.9595 52.4524 76.6882 51.9363 79.6961C51.4203 82.7041 51.9842 85.7977 53.5284 88.4301C55.0726 91.0625 57.4977 93.0642 60.375 94.0815V103.5C60.375 110.362 63.1011 116.944 67.9536 121.796C72.8061 126.649 79.3875 129.375 86.25 129.375C93.1125 129.375 99.6939 126.649 104.546 121.796C109.399 116.944 112.125 110.362 112.125 103.5V98.7519C116.992 97.7519 121.365 95.1045 124.507 91.256C127.649 87.4076 129.369 82.5934 129.375 77.625V51.75H116.438ZM64.6875 77.625C65.5405 77.625 66.3742 77.8779 67.0834 78.3518C67.7926 78.8256 68.3454 79.4992 68.6718 80.2872C68.9982 81.0752 69.0836 81.9423 68.9172 82.7788C68.7508 83.6154 68.34 84.3838 67.7369 84.9869C67.1338 85.59 66.3654 86.0007 65.5289 86.1671C64.6923 86.3335 63.8252 86.2481 63.0372 85.9217C62.2492 85.5953 61.5757 85.0426 61.1018 84.3334C60.628 83.6242 60.375 82.7904 60.375 81.9375C60.375 80.7938 60.8294 79.6968 61.6381 78.8881C62.4469 78.0793 63.5438 77.625 64.6875 77.625Z" fill="#00B9BC"/>
<path d="M112.125 17.25H94.875V8.625H86.25V17.25H51.75V8.625H43.125V17.25H25.875C23.5875 17.25 21.3937 18.1587 19.7762 19.7762C18.1587 21.3937 17.25 23.5875 17.25 25.875V112.125C17.25 114.412 18.1587 116.606 19.7762 118.224C21.3937 119.841 23.5875 120.75 25.875 120.75H43.125V112.125H25.875V25.875H43.125V34.5H51.75V25.875H86.25V34.5H94.875V25.875H112.125V43.125H120.75V25.875C120.75 23.5875 119.841 21.3937 118.224 19.7762C116.606 18.1587 114.412 17.25 112.125 17.25Z" fill="#00B9BC"/>
</svg>
