<svg width="152" height="152" viewBox="0 0 152 152" fill="none" xmlns="http://www.w3.org/2000/svg">
<path d="M128.25 76.8906H75.1095V23.75C75.1095 23.0969 74.5751 22.5625 73.922 22.5625H70.0626C62.2652 22.5497 54.5422 24.0789 47.3379 27.062C40.1337 30.045 33.5904 34.4232 28.0845 39.9445C22.6622 45.35 18.3418 51.7576 15.3634 58.8109C12.2641 66.1265 10.6737 73.9925 10.6876 81.9375C10.6748 89.7349 12.204 97.4579 15.1871 104.662C18.1701 111.866 22.5483 118.41 28.0696 123.916C33.5173 129.363 39.8704 133.653 46.936 136.637C54.2516 139.736 62.1176 141.326 70.0626 141.312C77.86 141.325 85.583 139.796 92.7873 136.813C99.9915 133.83 106.535 129.452 112.041 123.93C117.488 118.483 121.778 112.13 124.762 105.064C127.861 97.7485 129.451 89.8825 129.438 81.9375V78.0781C129.438 77.425 128.903 76.8906 128.25 76.8906ZM104.752 116.939C100.156 121.5 94.7049 125.108 88.7115 127.559C82.718 130.009 76.3 131.253 69.8251 131.219C56.7477 131.159 44.4571 126.038 35.2095 116.791C25.9024 107.484 20.7813 95.1039 20.7813 81.9375C20.7813 68.7711 25.9024 56.3914 35.2095 47.0844C43.3141 38.9797 53.7493 34.0367 65.0157 32.9086V86.9844H119.091C117.949 98.3101 112.961 108.805 104.752 116.939ZM141.313 68.6375L140.927 64.4515C139.665 50.7805 133.594 37.8812 123.827 28.1437C114.053 18.3884 101.18 12.351 87.4298 11.0734L83.229 10.6875C82.5313 10.6281 81.9376 11.1625 81.9376 11.8601V68.875C81.9376 69.5281 82.472 70.0625 83.1251 70.0625L140.125 69.914C140.823 69.914 141.372 69.3203 141.313 68.6375ZM92.0016 59.9984V21.9094C101.352 23.8665 109.933 28.4973 116.702 35.2391C123.485 42.0078 128.131 50.6172 130.061 59.8945L92.0016 59.9984Z" fill="#00B9BC"/>
</svg>
